<svg width="25" height="25" viewBox="0 0 25 25" fill="none" xmlns="http://www.w3.org/2000/svg">
<path d="M11.7145 1.27804C12.127 0.240654 13.5319 0.240655 13.9444 1.27804L16.3789 7.40085C16.5529 7.83819 16.9461 8.137 17.3974 8.17485L23.7166 8.70479C24.7873 8.79457 25.2215 10.1922 24.4057 10.9231L19.5912 15.2371C19.2473 15.5453 19.097 16.0288 19.2021 16.4895L20.673 22.9398C20.9222 24.0327 19.7857 24.8965 18.869 24.3109L13.4589 20.8542C13.0724 20.6073 12.5864 20.6073 12.2 20.8542L6.78979 24.3109C5.87314 24.8965 4.73655 24.0327 4.98576 22.9398L6.45671 16.4895C6.56178 16.0288 6.41159 15.5453 6.06771 15.2371L1.25307 10.9231C0.437329 10.1922 0.871473 8.79457 1.94214 8.70479L8.26144 8.17485C8.71281 8.137 9.106 7.83819 9.27989 7.40085L11.7145 1.27804Z" fill="white"/>
</svg>
