<svg width="24" height="25" viewBox="0 0 24 25" fill="none" xmlns="http://www.w3.org/2000/svg">
<path d="M16.9051 13.3517H4.70234C4.45767 13.3517 4.25459 13.2709 4.09309 13.1092C3.93142 12.9476 3.85059 12.7445 3.85059 12.5C3.85059 12.2555 3.93142 12.0524 4.09309 11.8907C4.25459 11.7291 4.45767 11.6482 4.70234 11.6482H16.9051L11.4033 6.14674C11.2333 5.97674 11.1473 5.77649 11.1451 5.54599C11.1428 5.31532 11.2267 5.11457 11.3968 4.94374C11.5672 4.77224 11.7679 4.68749 11.9991 4.68949C12.2303 4.69149 12.4315 4.7774 12.6028 4.94724L19.5528 11.8972C19.6438 11.9892 19.71 12.0849 19.7513 12.1842C19.7928 12.2837 19.8136 12.3892 19.8136 12.5007C19.8136 12.6122 19.7928 12.7175 19.7513 12.8165C19.71 12.9157 19.6438 13.0111 19.5528 13.1027L12.5968 20.0527C12.421 20.2266 12.2196 20.3135 11.9926 20.3135C11.7658 20.3135 11.5673 20.2261 11.3973 20.0512C11.2275 19.8811 11.1426 19.6823 11.1426 19.455C11.1426 19.2278 11.2275 19.0292 11.3973 18.8592L16.9051 13.3517Z" fill="white"/>
</svg>
