<svg width="24" height="25" viewBox="0 0 24 25" fill="none" xmlns="http://www.w3.org/2000/svg">
<path d="M7.09502 13.3518L12.5968 18.8533C12.7668 19.0236 12.8527 19.2236 12.8545 19.4533C12.8565 19.6829 12.7726 19.8836 12.6028 20.0553C12.4328 20.2274 12.2322 20.3125 12.001 20.3105C11.7699 20.3085 11.5686 20.2226 11.3973 20.0528L4.44727 13.1028C4.35627 13.0108 4.29011 12.9151 4.24877 12.8158C4.20727 12.7163 4.18652 12.6108 4.18652 12.4993C4.18652 12.3878 4.20727 12.2825 4.24877 12.1835C4.29011 12.0844 4.35627 11.9889 4.44727 11.8973L11.4033 4.94127C11.5791 4.77144 11.7805 4.68652 12.0075 4.68652C12.2344 4.68652 12.4328 4.77144 12.6028 4.94127C12.7726 5.11527 12.8575 5.31602 12.8575 5.54352C12.8575 5.77119 12.7726 5.97027 12.6028 6.14077L7.09502 11.6483H19.2978C19.5419 11.6483 19.7459 11.7291 19.9098 11.8908C20.0736 12.0524 20.1555 12.2555 20.1555 12.5C20.1555 12.7445 20.0736 12.9476 19.9098 13.1093C19.7459 13.2709 19.5419 13.3518 19.2978 13.3518H7.09502Z" fill="white"/>
</svg>
